<svg xmlns="http://www.w3.org/2000/svg" viewBox="0 0 272 35"><path d="m176.054 2.869-1.662-.43-.195.143h-1.76l-2.297.43v.24l.196 1.434.244.239v.43l1.515 1.004 1.222-.239.587-.621 2.15.19.587.24 1.515.191.293 1.482.147.144-.147 1.29h-.44l.44.479-.293.143v.43l.44.431-.44.622.88 1.625-1.027 1.626.147.24v2.246l.293.192-.293.239h-.147v.478l-1.075 1.339v1.29l.831.622v.574l.244.622-.635.669h-.293l.293.191-.44 1.482.44 1.005-.733.621h-.342v.622l-1.027.382-.44-.382-.244.239-2.151.143-1.222.43-.635.43-.587 1.053h-.293v.621l1.075 1.578.88.191 1.858-.334h.684l.831.334v.287l.831-.478h5.914l.146-.143h.88l.489.813h.586l1.076-.67.44.478.146-.287h1.711l2.786-1.338v-1.052l-1.515-1.482-1.271.43-.196.191h-.439l-1.076-.191-1.026-.24-.44-.764-.782.143-.244.192h-.391l-.88-.574.146-.192v-.239l-.342-.812-.244-.24v-.621l.244-.574-.391-.43v-.622l.147-.621v-1.865l-.44-.478.293-.765.147-2.917v-4.59l-.44-.335.293-.239.147-2.247.44-.43-.196-.144V5.69h.196l-.196-.191V4.35l-.684-.717-.342-.383-1.075-.382h-.685l-.782.382-1.955-.239V2.87ZM206.162 1.77l-.635-.431v.143l-1.662.287-.195.144-.245-.144v-.287l-.195.287-1.466.144-1.027.86-.146.144-1.565.43-1.075 1.052-.244-.24-.098.192.196.144.146-.096-.586 1.195-.44.43.195.192-.44.382-.635 1.052v.813l-.44.43.293.192-.44.43v3.252l-.439.43.439 1.004-.195.86.342.335.293.813 1.222 1.674-.195.239h-.245v.19h.44v-.19l.245.19v.431l.782.574v.191h.586l.44.43h.587l1.515 1.483h1.319l.783.813.244-.24.342.43.293-.19h.147l-.147-.24.44-.573h1.173l.44-.43h.196l1.026-.192 1.515-.573.88.334.587-.191v-.574l.782-1.004.244.143.195.622-.439.813h-.196l.196.191v.24l.244 1.051-.44.383v.765l-.586 1.052h-.245v.573l-.342.43-.684.431.244.143-1.026 1.483-1.076.621.196.24-.44.43-1.222.573-.147.43h-.293l-1.026.766-.44-.43v.239l-.147.19-.195-.19h-.44l-1.955.621-2.884.144-1.026.717-.685 1.625 1.271 1.483h.636l.83.191.343-.43h1.319v.239h.44l.147-.24h1.075l.831.24 1.222-.622h1.026l-.293-.191 1.32-.24.586-.764h.44l.636-.86.146.19.245-.334.782-.287 2.15-1.626v-.621l.587-.574.293-.86.587-.861.146-1.34.44-2.342-.147.287-.293-.287v-.144l.44-1.29.88-1.196.195-1.434v-1.148l-.44-1.291.831-1.673-.831-3.49v-.192l-.635-.813-.147-1.865-.293-.239V7.89l-.146-.765-1.222-1.912v-.813l-.391-.574-2.102-1.482h-1.027l-.879-.43.244-.144h-1.76Zm-1.221 4.111 1.221.335h.685l.342-.335.684.144.342.43.294-.24 1.026 1.483.44 1.004.586.24h.196v5.546l-.44.382-.195-.143-.587 1.195-.44 1.004h-1.026l-1.027.861h-.88l-.635.383h-.733l-1.564-1.244h-1.271l-1.222-.191h-.146l-.734-1.243.294-.191-.44-.43-.636-1.005.196-1.482-.44-.335-.147-1.29.831-.718-.244-1.052 1.026-2.056.636-.43 2.101-.24.245-.764.782.765.88-.383ZM230.699 2.869l-1.662-.43-.147.143h-1.808l-2.297.43v.24l.195 1.434.245.239v.43l1.515 1.004 1.222-.239.635-.621 2.102.19.635.24 1.466.191.294 1.482.146.144-.146 1.29h-.44l.44.479-.294.143v.43l.44.431-.44.622.88 1.625-1.026 1.626.146.24v2.246l.294.192-.294.239h-.146v.478l-1.027 1.339v1.29l.782.622v.574l.245.622-.636.669h-.244l.244.191-.391 1.482.391 1.005-.684.621h-.342v.622l-1.075.382-.44-.382-.245.239-2.15.143-1.173.43-.684.43-.587 1.053h-.293v.621l1.124 1.578.831.191 1.906-.334h.684l.782.334v.287l.831-.478H236.417l.147-.143h.929l.439.813h.587l1.124-.67.44.478.147-.287h1.662l2.786-1.338v-1.052l-1.467-1.482-1.319.43-.196.191h-.44l-1.026-.191-1.076-.24-.439-.764-.783.143-.244.192h-.342l-.929-.574.147-.192v-.239l-.342-.812-.245-.24v-.621l.245-.574-.391-.43v-.622l.146-.621v-1.865l-.439-.478.293-.765.146-2.917v-4.59l-.439-.335.293-.239.146-2.247.44-.43-.195-.144V5.69h.195l-.195-.191V4.35l-.684-.717-.343-.383-1.026-.382h-.733l-.782.382-1.955-.239V2.87ZM258.07 2.869l-1.711-.43-.146.143h-1.809l-2.248.43v.24l.195 1.434.245.239v.43l1.466 1.004 1.271-.239.586-.621 2.151.19.586.24 1.467.191.293 1.482.147.144-.147 1.29h-.44l.44.479-.293.143v.43l.44.431-.44.622.928 1.625-1.075 1.626.147.24v2.246l.293.192-.293.239h-.147v.478l-1.026 1.339v1.29l.782.622v.574l.244.622-.635.669h-.245l.245.191-.391 1.482.391 1.005-.685.621h-.342v.622l-1.075.382-.44-.382-.244.239-2.151.143-1.173.43-.635.43-.636 1.053h-.293v.621l1.124 1.578.831.191 1.906-.334h.685l.782.334v.287l.879-.478h5.914l.147-.143h.88l.44.813h.586l1.124-.67.44.478.147-.287h1.662L272 30.171v-1.052l-1.467-1.482-1.319.43-.196.191h-.44l-1.026-.191-1.026-.24-.489-.764-.782.143-.245.192h-.342l-.88-.574.147-.192v-.239l-.391-.812-.244-.24v-.621l.244-.574-.391-.43v-.622l.147-.621v-1.865l-.44-.478.293-.765.147-2.917v-4.59l-.44-.335.293-.239.147-2.247.488-.43-.244-.144V5.69h.244l-.244-.191V4.35l-.684-.717-.342-.383-1.027-.382h-.684l-.831.382-1.906-.239V2.87ZM12.317.478 10.508.287l-.488.478L5.523.478l-1.808.43-.196.24h-.684l-.538-.24-.782-.143V.478l-.83.43-.147.765H.293l.245.287L0 2.343l.538.526v.526l-.245.191.685 1.004 1.515-.67h1.026v.192h.733l.538.335v.143l.929-.478L8.7 3.921l.538.526.782-.335.293-.191h.195l.734.191.733.478v.765l-.978 1.721-.293-.239v.718l.293.765.245 2.63.537.812-.537.383v.526l.293.287-.831.43.538 1.721-.538 1.004v5.451l-.196.67v1.72l.196 1.435-.391.526.195.24.196 2.725-.391.382h-.538l-1.222.335-.537-.478-.245.143-.83.335H.684l-.146.717-.245 1.721H0l.538.527v.239l-.245.143.391 1.052h.831l2.004-.526.978.717 4.056-.191.685-.526.537.526.245-.24.977-.286.245-.24.537.527v.239h4.253l.537-.526 1.467.526h2.297l.146-.24h.783l2.492.24.733.191.831-.43h3.959l2.004-2.917-.244-1.721-.293-1.052v-1.434l.293.239v-.957l-.293-1.96.537-.43-.244-.383v-1.578l-.538-.526.245-.287v-.239l.293-1.195-.538-.526v-.717l-.977-1.004-1.32.287-1.222.717v1.243l-.733.67v.764l-.196.287.49.67v1.29l-.294 4.352-1.27.717-.734.813-.147.239h-.537l-.782.478-2.982-.335h-3.519l-.977-1.386v-.718l.195-1.912-.733-1.052.244-.24.293-1.72.44-.526-.244-.144.538-2.008h.244V18.6l-.538-1.244-.244-2.964-.195-.143v-.383l-.294-4.877V3.921h.293l.196.191h3.226l1.613.717V4.59l.146-.143 1.076.143.39-.67 1.076-.525V2.343l-.244-.144v-.526L21.262.908 19.795.765 16.96.478l-1.222.956h-.44L13.735.908V.765l-.195.143-1.222-.43ZM55.916.24 54.84 0v.24l-.684.286-.293.239-.245-.239h-.537l-1.418.526-1.075.908v1.196l1.075 1.29.684.288v.19l1.76-.19.538.382.684.287 2.004-1.195.538.526v.382l-.538.526.684 1.913-.489 2.247.49 2.247.537.383-.196.334v1.435l-.537.478.195 1.434.538 2.774v5.594l-.538.526.342 1.195.196 1.435-.538 1.578h-.195l.195.19-.684.766-1.76.67-.537-.383v-.335h-.685l-1.466-.24-.538.527h-.537l-.929 1.195 1.466 1.626.538-.383.196.24 1.075-.24h4.448l.244-.286 3.715.286 1.613.24 2.004.19.488.527 1.32-.67.929.192.537-.383.294.24v.19h.39l.294-.19h1.76l2.199-1.053v-.67l.342-.238h.196l.537-.957 1.467-.526.684-.765v-1.912l.83-1.721.245-.765-.684-2.63-.538-.813v-2.152l-2.541-2.486.244-.287-.391-.383v-.812l.196-.67 1.075-.526 1.222-2.868h.244v-.909l.196-1.96-.685-1.387-1.222-1.291v-.67l-.537-.525.293-.287v-.24l-.684-.525.195-.192-1.417-1.051v.286l-.342.24-.538-.526v-.144l-.635-.335v-.143H70.09L68.868.526l-.929-.287L65.056 0l-.392.526H63.59V.239l-1.955.287L60.07 0l-1.222.765-1.466-.239-1.075.239-.392-.526ZM66.62 5.402l1.32-.287v.813l1.221.239.245-.239.977-.287.929 1.913h.537l-.097-.048.244-.335.196.24-.294.19.294.335.782 1.435v1.72l-.343.957-.928.909v.526l-.978.239-.782.813-3.519-.287h-1.466l-.685.956-.537-.526-1.76.239-.537-.382-.196-1.052-.244-.526v-.67h.244l.196-4.207.537-1.196V6.36h.294l.244-1.195.537-.383 1.76.909 1.808-.287Zm-2.249 12.48.684-.526.538.334 1.76.526h2.004l1.515.67h.39l1.76 1.72v.24l.538.478.244-.287.831.813v3.395l-.537 1.195-.685.287h-.342l-.684 1.195v.909l-.244.335-2.298.19-4.496.24h-3.715l-.538-1.434V24.48l-.537-2.247.293-1.913-.293-.239-.245-.526h.245l.293-.191-.538-.526.782-.526v-.622l.538-.334 1.222.86 1.515-.334ZM99.855 4.208h2.004v.19l.245-.19.684.67.538 1.194-.538.526v.24l.538.956.293.239v1.052l-.538 1.912.538.765-.831.957v.765l-.391.478.195.239.245 1.578.293.191v.526l-.293 3.347v2.486l-.391.813v1.195l.391 1.435.293.239-.293.287-.245 2.438-.977.526-.244.24-.538-.527h-.538v.192l-.195.239-.245-.24-.977 1.435-.245-.239.245 1.674.489.526v.286l1.808-.286 1.417.478 1.32 1.052h.684l.294-.287 4.203-.24h1.222l.831-1.003.782-.24 1.466.67v.239l-.244.287h1.759l.391-.526.538-.67.293.24.782-.765.196.239v.526l1.613 1.195h.684l2.542-.909.928.383 1.027.287v.239h.537l.929-.526.538-.383 3.128.144-.245-.191 1.32-.813v-.383h-.244l-.831-1.721-.684-.335v-.191l-1.809.191-.684-.382V27.97l-.538-.813-.195-.908v-1.721l.195-2.247.342-2.152-.537-1.291v-2.152l-.245-.765-.293-1.96.538-.478h.195v-.765l-.391-1.196-.537-2.773-.685-.382.391-.526v-.67l.538-2.247.684-1.435 2.102-1.051 1.222-.192v-.526l-.293-.287h-.245l-1.222.526-1.222-1.29h-.537l-.538.525-2.004-.526-2.493.335-.782.909h-.293v.478l-.244.239-.196-.24v1.292l-.293 1.195h-.244l-.685 1.96.196.287h.537l1.76.909.244-1.196.196.287v-.526l.342-1.482.196-1.243h.293l.244-.383h.196l1.075 1.674.244 5.164-.391.526v3.108h-.537l.195.239.342 3.442-.537.526.195 1.196-.537 1.434.537.526-.537 1.435v1.864l.537 1.052-.195.24v2.916h-.538l-.244.67h-.294l-.195-.192h-1.857l-.489.526-1.466-.335v-.19l.195-.24-.684-.813v-.382l-.245-1.722.489-1.72h.293v-.766l-.293-.287.489-1.195.342-.765-.538-1.196.538-.526-.342-.19.538-.527-.196-.239.391-.478-.929-1.052.538-.382-.342-.287.538-.526v-.24l.537-1.195h.245l-.538-.526.538-.526-.245-1.195.538-.67v-1.96h-.538l-.537.526-.685.909v3.012h-.293l-.489 1.96.782 1.196-.537.526-.245 1.195-1.026 1.195-.245-.19V19.7l-.977 1.577-.782-1.052-.538-.908-.537-.526v-1.195l-.685-1.196-.244-1.96v-1.721l-.489-.957-.342-.765-.195-.191.537-1.052-.782-2.486V4.686l.245-.478-1.222-1.578-.782-.24-.294-.956h-2.199l-1.32-.765-.293.335v.191l-.929.526-.684-.526h-3.666l-.733 1.674 1.857 1.339Zm8.261 3.347h.537v.526l.245.287-.245 1.195-.293.239v.191l.538.526v1.052l.195.24h-.195l-.245.286v.191l.245.24.195-.24-.195.765-.245 1.196.245.287.684 2.199-.245 1.721-.977.479 1.76 2.199.195 2.438.342 1.722v.526l.489.526-.293 1.434-.196.287.684 1.195v1.196l.245.239h-.489l-.293-1.196-.538-.526-.929.287h-.684l-.831-.813.538-.382-.538-.813v-.908l-.782-.526-.195.239-.293-1.291-.245-1.626-.195-1.578.684-.67v-.525l-1.222-.526.195-1.387.343-.239-.343-.287-.537-.526-.196-1.625.196-2.248v-1.1l-.196-.238V8.607l.685-.765V6.12h.537l1.858 1.435Zm8.211 23.046-.245-.239.489-.287h.294l-.538.526ZM40.47 26.537l-1.564-.67-.098.24h-.244l-.147-.144-.83.24-.392.334h-.244l-.831.621-.636 1.1.098 1.291v.335h-.098l.294.143.342 1.243.342.43h.342l.147-.095.635.574.342.096.098-.096.538-.24.244.24.098-.096h.537l.685-.478 1.124-.526v-.335l.098-.43h.146v-.621l.391-1.005-.293-.573-.098-.096v-.526l-.39-.335-.636-.621ZM86.806 26.537l-1.613-.67-.098.24h-.244l-.147-.144-.83.24-.392.334h-.195l-.88.621-.635 1.1.097 1.291v.335h-.097l.293.143.342 1.243.342.43h.391l.147-.095.586.574.391.096.05-.096.537-.24.244.24.098-.096h.538l.684-.478 1.173-.526v-.335l.049-.43h.146v-.621l.391-1.005-.244-.573-.147-.096v-.526l-.39-.335-.587-.621ZM140.766 26.537l-1.564-.67-.098.24h-.244l-.147-.144-.831.24-.44.334h-.195l-.88.621-.587 1.1.098 1.291v.335h-.098l.245.143.342 1.243.391.43h.342l.147-.095.635.574.342.096.098-.096.538-.24.244.24.098-.096h.488l.734-.478 1.124-.526v-.335l.098-.43h.097v-.621l.44-1.005-.293-.573-.147-.096v-.526l-.342-.335-.635-.621Z"/></svg>