<svg xmlns="http://www.w3.org/2000/svg" xml:space="preserve" viewBox="0 0 450 66.58"><path d="m170.33 0-29.8 65.74h10.77l3.92-9h30.39l3.92 9h11.3L170.94 0h-.61zm-11.11 47.75 11.29-25.5s11.21 25.5 11.1 25.5h-22.39zM72.19 1.31h-2.14v9.01h21.3v55.42h10.12V10.32H122.75V1.31h-2.15zM315.96 1.31h-2.14v9.01h21.3v55.42h10.12V10.32H366.52V1.31h-2.15zM447.85 1.31H397.3v9.01h21.3v55.42h10.12V10.32H450V1.31zM273.21 43.3 231.9 0h-.76v65.36h9.52V23.01l41.3 43.28h.72V.94h-9.47zM28.34 29.06l-4.45-1.98c-7.01-3.14-10.14-5.11-10.14-10.23 0-4.45 3.04-7.48 8.26-7.48 4.83 0 8.04 2.08 10.52 6.26l7.67-5.03C36.1 3.78 30.05.47 21.8.47 11.19.47 3.89 7.38 3.89 17.25c0 10.04 6.45 14.94 15.91 19.12l4.47 1.98c5.69 2.58 10.25 4.64 10.25 10.71 0 5.2-4.56 8.43-11.38 8.43-6.63 0-11.66-3.05-14.59-8.69L0 53.04c4.38 8.26 12.34 13.54 23.24 13.54 12.2 0 21.31-5.97 21.31-17.78 0-10.91-6.46-15.37-16.21-19.74z"/></svg>